# xmcd
# 
# Track frame offsets:
#     150
#     17992
#     34286
#     52912
#     73508
#     93926
#     109309
#     128437
#     141687
#     154336
# 
# Disc length: 2291
# 
# Revision: 5
# Processed by: cddbd v1.5.2PL0 Copyright (c) Steve Scherf et al.
# Submitted via: fre:ac v1.0.31
# 
DISCID=8b08f10a
DTITLE=Keb Mo - Blues Americana
DYEAR=2014
DGENRE=Blues
TTITLE0=The Worst Is Yet to Come
TTITLE1=Somebody Hurt You
TTITLE2=Do It Right
TTITLE3=I'm Gonna Be Your Man
TTITLE4=Move
TTITLE5=For Better or Worse
TTITLE6=That's Alright
TTITLE7=The Old Me Better
TTITLE8=More for Your Money
TTITLE9=So Long Goodbye
EXTD=YEAR: 2014
EXTT0=
EXTT1=
EXTT2=
EXTT3=
EXTT4=
EXTT5=
EXTT6=
EXTT7=
EXTT8=
EXTT9=
PLAYORDER=
